<?xml version="1.0" standalone="no"?><!DOCTYPE svg PUBLIC "-//W3C//DTD SVG 1.1//EN" "http://www.w3.org/Graphics/SVG/1.1/DTD/svg11.dtd"><svg t="1612709436084" class="icon" viewBox="0 0 1024 1024" version="1.1" xmlns="http://www.w3.org/2000/svg" p-id="1755" xmlns:xlink="http://www.w3.org/1999/xlink" width="200" height="200"><defs><style type="text/css"></style></defs><path d="M316.3 805.2h391.2v29.1H316.3z" fill="#A4A9AD" p-id="1756"></path><path d="M316.3 805.2v29.1h41l15.3-29.1zM707.5 805.2v29.1h-41l-15.3-29.1z" fill="" p-id="1757"></path><path d="M249.7 887.7h524.4v29.1H249.7z" fill="#A4A9AD" p-id="1758"></path><path d="M256.4 887.7l-6.7 12.8v16.3h64.2l15.3-29.1zM767.4 887.7l6.7 12.8v16.3h-64.2l-15.3-29.1z" fill="" p-id="1759"></path><path d="M205.6 959.7c-5.5 0-8-4-5.4-8.9l141.6-269c2.6-4.9 8.7-6.8 13.6-4.2l39.2 20.6c4.9 2.6 6.8 8.7 4.2 13.6L273 950.8c-2.6 4.9-9.2 8.9-14.8 8.9h-52.6z" fill="#333E48" p-id="1760"></path><path d="M346.5 672.9l-62 117.8h72.8l46.2-87.8z" fill="" p-id="1761"></path><path d="M818.2 959.7c5.5 0 8-4 5.4-8.9L682 681.8c-2.6-4.9-8.7-6.8-13.6-4.2l-39.2 20.6c-4.9 2.6-6.8 8.7-4.2 13.6l125.8 239c2.6 4.9 9.2 8.9 14.8 8.9h52.6z" fill="#333E48" p-id="1762"></path><path d="M677.3 672.9l62 117.8h-72.8l-46.2-87.8z" fill="" p-id="1763"></path><path d="M767.5 104.3c0-22.1-18.1-40.3-40.3-40.3H296.6c-22.1 0-40.3 18.1-40.3 40.3v609.9c0 22.1 18.1 40.3 40.3 40.3h430.6c22.1 0 40.3-18.1 40.3-40.3V104.3z" fill="#FF5959" p-id="1764"></path><path d="M355.9 637.4m-45.3 0a45.3 45.3 0 1 0 90.6 0 45.3 45.3 0 1 0-90.6 0Z" fill="" p-id="1765"></path><path d="M667.9 637.4m-45.3 0a45.3 45.3 0 1 0 90.6 0 45.3 45.3 0 1 0-90.6 0Z" fill="" p-id="1766"></path><path d="M713.2 282.6c0-16.6-13.6-30.2-30.2-30.2H340.8c-16.6 0-30.2 13.6-30.2 30.2v212c0 16.6 13.6 30.2 30.2 30.2H683c16.6 0 30.2-13.6 30.2-30.2v-212z" fill="#FFFFFF" p-id="1767"></path><path d="M604.5 524.9c0-51.1-41.5-92.6-92.6-92.6-51.1 0-92.6 41.5-92.6 92.6h185.2z" fill="#A4A9AD" p-id="1768"></path><path d="M683 252.4H340.8c-16.6 0-30.2 13.6-30.2 30.2v50.1c0-16.6 13.6-30.2 30.2-30.2H683c16.6 0 30.2 13.6 30.2 30.2v-50.1c0-16.6-13.6-30.2-30.2-30.2z" fill="" p-id="1769"></path><path d="M340.8 267c-8.6 0-15.7 7-15.7 15.7v212c0 8.6 7 15.7 15.7 15.7H683c8.6 0 15.7-7 15.7-15.7v-212c0-8.6-7-15.7-15.7-15.7H340.8zM683 539.4H340.8c-24.7 0-44.7-20.1-44.7-44.7v-212c0-24.7 20.1-44.7 44.7-44.7H683c24.7 0 44.7 20.1 44.7 44.7v212c0 24.6-20 44.7-44.7 44.7zM713.2 154.7c0-16.6-13.6-30.2-30.2-30.2H340.8c-16.6 0-30.2 13.6-30.2 30.2v12.8c0 16.6 13.6 30.2 30.2 30.2H683c16.6 0 30.2-13.6 30.2-30.2v-12.8z" fill="#333E48" p-id="1770"></path><path d="M683 124.5H340.8c-16.6 0-30.2 13.6-30.2 30.2v12.8c0 1.7 0.2 3.4 0.5 5 2.4-14.2 14.8-25.2 29.7-25.2H683c14.9 0 27.3 10.9 29.7 25.2 0.3-1.6 0.5-3.3 0.5-5v-12.8c0-16.6-13.6-30.2-30.2-30.2z" fill="" p-id="1771"></path><path d="M355.9 615.9m-45.3 0a45.3 45.3 0 1 0 90.6 0 45.3 45.3 0 1 0-90.6 0Z" fill="#FFB819" p-id="1772"></path><path d="M667.9 615.9m-45.3 0a45.3 45.3 0 1 0 90.6 0 45.3 45.3 0 1 0-90.6 0Z" fill="#FFB819" p-id="1773"></path><path d="M600.9 754.5v-51.3c0-16.6-13.6-30.2-30.2-30.2H453.1c-16.6 0-30.2 13.6-30.2 30.2v51.3h178z" fill="#D1D3D3" p-id="1774"></path><path d="M422.9 701.2h177.9v29.1H422.9z" fill="#A4A9AD" p-id="1775"></path><path d="M590.4 620.9h-157c-8 0-14.5-6.5-14.5-14.5s6.5-14.5 14.5-14.5h157c8 0 14.5 6.5 14.5 14.5s-6.5 14.5-14.5 14.5z" fill="#FFFFFF" p-id="1776"></path></svg>